<svg width="20" height="20" viewBox="0 0 20 20" fill="none" xmlns="http://www.w3.org/2000/svg">
<g clip-path="url(#clip0_0_57)">
<path d="M6.3998 18.6054L6.37657 18.6497L6.3998 18.6054L4.4766 17.5962C3.50369 17.0856 2.72848 16.6788 2.13053 16.2794C1.51203 15.8664 1.03921 15.4339 0.695291 14.8498C0.352455 14.2676 0.197229 13.6359 0.122587 12.8782C0.0500454 12.1417 0.0499909 11.2351 0.0500002 10.0906V9.9094C0.0499909 8.76476 0.0500454 7.85826 0.122587 7.12185C0.197229 6.36416 0.352455 5.7324 0.69529 5.15019C1.03921 4.56613 1.51203 4.13362 2.13053 3.72057C2.72848 3.32125 3.5037 2.91437 4.47662 2.40382L6.39989 1.39453C7.19265 0.978503 7.82641 0.645957 8.37148 0.420549C8.93503 0.187464 9.44633 0.05 10 0.05C10.5537 0.05 11.065 0.187464 11.6285 0.420548C12.1736 0.645966 12.8074 0.978513 13.6001 1.39454L13.6233 1.35027L13.6001 1.39454L15.5234 2.40381C16.4963 2.91437 17.2715 3.32125 17.8694 3.72057C18.488 4.13362 18.9608 4.56613 19.3047 5.15019C19.6475 5.7324 19.8027 6.36416 19.8774 7.12185C19.9499 7.85825 19.95 8.76476 19.95 9.9093V10.0907C19.95 11.2352 19.9499 12.1417 19.8774 12.8782C19.8027 13.6359 19.6475 14.2676 19.3047 14.8498C18.9608 15.4339 18.488 15.8664 17.8694 16.2794C17.2715 16.6788 16.4963 17.0856 15.5234 17.5962L13.6001 18.6055C12.8074 19.0215 12.1736 19.354 11.6285 19.5795C11.065 19.8125 10.5537 19.95 10 19.95C9.44633 19.95 8.93503 19.8125 8.37148 19.5795C7.8264 19.354 7.1926 19.0215 6.3998 18.6054ZM17.78 5.38588L17.8427 5.35456L17.7927 5.30549C17.6232 5.13899 17.4144 4.97427 17.1501 4.79779C16.6153 4.44063 15.9003 4.06452 14.8876 3.53306L13.0271 2.55673C12.2003 2.12282 11.618 1.81794 11.1335 1.61757C10.661 1.42215 10.3247 1.34535 10 1.34535C9.67535 1.34535 9.33901 1.42215 8.86647 1.61757C8.38201 1.81794 7.7997 2.12282 6.97286 2.55673L6.72928 2.68455L6.64503 2.72876L6.72922 2.77307L14.6361 6.93455L14.6588 6.9465L14.6817 6.93503L17.78 5.38588ZM5.33437 3.45884L5.30837 3.43021L5.27412 3.44818L5.11239 3.53306C4.09967 4.06451 3.38474 4.44063 2.84993 4.79779C2.58566 4.97426 2.37671 5.13899 2.20731 5.30549L2.15739 5.35457L2.22 5.38587L9.97764 9.26472L10 9.2759L10.0224 9.26472L13.1453 7.70322L13.2325 7.65964L13.1463 7.61426L5.5123 3.5964L5.48901 3.64064L5.5123 3.5964C5.44337 3.56012 5.38377 3.51323 5.33437 3.45884ZM1.5923 6.52027L1.53579 6.49202L1.52127 6.55351C1.47366 6.75517 1.43785 6.9834 1.41169 7.24885C1.34607 7.91495 1.34535 8.75858 1.34535 9.94558V10.0544C1.34535 11.2414 1.34607 12.085 1.41169 12.7511C1.47598 13.4037 1.59862 13.831 1.81149 14.1925L1.85458 14.1672L1.81149 14.1925C2.02329 14.5522 2.32872 14.8541 2.84992 15.2022C3.38474 15.5594 4.09967 15.9355 5.11239 16.467L5.13563 16.4227L5.1124 16.467L6.97286 17.4433C7.7997 17.8771 8.38202 18.1821 8.86646 18.3824C9.01976 18.4458 9.15871 18.4967 9.28754 18.5366L9.35233 18.5567V18.4888V10.4312V10.4003L9.32469 10.3864L1.5923 6.52027ZM10.6477 18.4888V18.5567L10.7125 18.5366C10.8413 18.4967 10.9802 18.4458 11.1335 18.3824C11.618 18.1821 12.2003 17.8771 13.0271 17.4433L14.8876 16.467L14.8644 16.4227L14.8876 16.467C15.9003 15.9355 16.6153 15.5594 17.1501 15.2022C17.6712 14.8541 17.9767 14.5522 18.1885 14.1925C18.4014 13.831 18.5241 13.4037 18.5883 12.7511C18.654 12.085 18.6547 11.2414 18.6547 10.0544V9.94558C18.6547 8.75858 18.654 7.91495 18.5883 7.24884C18.5622 6.98339 18.5263 6.75517 18.4787 6.5535L18.4642 6.49201L18.4077 6.52026L15.3265 8.06088L15.2988 8.0747V8.1056V10.9302C15.2988 11.2879 15.0089 11.5779 14.6512 11.5779C14.2935 11.5779 14.0035 11.2879 14.0035 10.9302V8.80326V8.72235L13.9311 8.75853L10.6753 10.3864L10.6477 10.4003V10.4312V18.4888Z" fill="#515F72" stroke="#FCFCFF" stroke-width="0.1"/>
</g>
<defs>
<clipPath id="clip0_0_57">
<rect width="20" height="20" fill="white"/>
</clipPath>
</defs>
</svg>
