<svg width="24" height="24" viewBox="0 0 24 24" fill="none" xmlns="http://www.w3.org/2000/svg">
<path d="M18.1936 16.6891L18.2777 16.7389L18.3573 16.682C18.8368 16.3389 19.411 16.1531 20.0006 16.15C20.5976 16.1478 21.1801 16.333 21.6661 16.6796C22.1521 17.0261 22.517 17.5166 22.7094 18.0817C22.9017 18.6468 22.9118 19.258 22.7381 19.8291C22.5644 20.4003 22.2158 20.9024 21.7414 21.2648C21.2671 21.6272 20.6909 21.8314 20.0942 21.8488C19.4975 21.8661 18.9104 21.6957 18.4158 21.3615C17.9212 21.0273 17.544 20.5462 17.3374 19.9862C17.1309 19.4261 17.1054 18.8153 17.2646 18.24L17.2951 18.1297L17.1968 18.0711L14.8968 16.7011L14.7968 16.6416L14.7142 16.7236C13.9929 17.4407 13.0171 17.8432 12 17.8432C10.9829 17.8432 10.0071 17.4407 9.28575 16.7236L9.20322 16.6416L9.10324 16.7011L6.80324 18.0711L6.70346 18.1306L6.73602 18.2421C6.80806 18.4887 6.8464 18.744 6.85 19.001C6.8498 19.5643 6.68267 20.115 6.36969 20.5834C6.05653 21.0521 5.61142 21.4173 5.09065 21.6331C4.56988 21.8488 3.99684 21.9052 3.44399 21.7952C2.89115 21.6853 2.38333 21.4138 1.98475 21.0153C1.58617 20.6167 1.31473 20.1089 1.20476 19.556C1.0948 19.0032 1.15123 18.4301 1.36694 17.9094C1.58265 17.3886 1.94795 16.9435 2.41663 16.6303C2.8852 16.3172 3.43606 16.1501 3.99959 16.15C4.58914 16.1531 5.16322 16.339 5.64273 16.682L5.72225 16.7389L5.8064 16.6891L8.2564 15.2391L8.35952 15.1781L8.32277 15.064C8.21191 14.7199 8.15366 14.361 8.15 13.9995C8.15299 13.1485 8.43787 12.3224 8.96013 11.6504C9.48259 10.9782 10.2131 10.4981 11.0375 10.2852L11.15 10.2562V10.14V7.82V7.71394L11.05 7.67858C10.4161 7.45448 9.88192 7.01352 9.54175 6.43363C9.20158 5.85374 9.07736 5.17226 9.19104 4.50964C9.30473 3.84702 9.64901 3.24592 10.163 2.81258C10.677 2.37925 11.3277 2.14158 12 2.14158C12.6723 2.14158 13.323 2.37925 13.837 2.81258C14.351 3.24592 14.6953 3.84702 14.809 4.50964C14.9226 5.17226 14.7984 5.85374 14.4583 6.43363C14.1181 7.01352 13.5839 7.45448 12.95 7.67858L12.85 7.71394V7.82V10.14V10.2562L12.9625 10.2852C13.7869 10.4981 14.5174 10.9782 15.0399 11.6504C15.5621 12.3224 15.847 13.1485 15.85 13.9995C15.8463 14.361 15.7881 14.7199 15.6772 15.064L15.6405 15.1781L15.7436 15.2391L18.1936 16.6891ZM3.36109 19.9562L3.44443 19.8315L3.3611 19.9562C3.55021 20.0826 3.77255 20.15 4 20.15C4.305 20.15 4.59751 20.0288 4.81317 19.8132C5.02884 19.5975 5.15 19.305 5.15 19C5.15 18.7726 5.08255 18.5502 4.95619 18.3611C4.82983 18.172 4.65022 18.0246 4.44009 17.9375C4.22995 17.8505 3.99873 17.8277 3.77565 17.8721C3.55257 17.9165 3.34766 18.026 3.18683 18.1868C3.026 18.3477 2.91647 18.5526 2.8721 18.7756C2.82773 18.9987 2.8505 19.23 2.93754 19.4401C3.02458 19.6502 3.17198 19.8298 3.36109 19.9562ZM12.6389 4.04381C12.4498 3.91745 12.2274 3.85 12 3.85C11.695 3.85 11.4025 3.97116 11.1868 4.18683C10.9712 4.4025 10.85 4.695 10.85 5C10.85 5.22745 10.9174 5.44979 11.0438 5.63891C11.1702 5.82803 11.3498 5.97542 11.5599 6.06247C11.77 6.14951 12.0013 6.17228 12.2244 6.12791C12.4474 6.08353 12.6523 5.97401 12.8132 5.81318C12.974 5.65235 13.0835 5.44744 13.1279 5.22436C13.1723 5.00128 13.1495 4.77005 13.0625 4.55992C12.9754 4.34978 12.828 4.17018 12.6389 4.04381ZM10.8055 15.7877C11.1591 16.0239 11.5748 16.15 12 16.15C12.5702 16.15 13.1171 15.9235 13.5203 15.5203C13.9235 15.1171 14.15 14.5702 14.15 14C14.15 13.5748 14.0239 13.1591 13.7877 12.8055C13.5514 12.452 13.2156 12.1764 12.8228 12.0137C12.4299 11.8509 11.9976 11.8084 11.5806 11.8913C11.1635 11.9743 10.7804 12.179 10.4797 12.4797C10.179 12.7804 9.97427 13.1635 9.89131 13.5806C9.80835 13.9976 9.85093 14.4299 10.0137 14.8228C10.1764 15.2156 10.452 15.5514 10.8055 15.7877ZM19.3611 19.9562C19.5502 20.0826 19.7726 20.15 20 20.15C20.305 20.15 20.5975 20.0288 20.8132 19.8132C21.0288 19.5975 21.15 19.305 21.15 19C21.15 18.7726 21.0826 18.5502 20.9562 18.3611C20.8298 18.172 20.6502 18.0246 20.4401 17.9375C20.2299 17.8505 19.9987 17.8277 19.7756 17.8721C19.5526 17.9165 19.3477 18.026 19.1868 18.1868C19.026 18.3477 18.9165 18.5526 18.8721 18.7756C18.8277 18.9987 18.8505 19.23 18.9375 19.4401C19.0246 19.6502 19.172 19.8298 19.3611 19.9562Z" fill="#515F72" stroke="#FCFCFF" stroke-width="0.3"/>
</svg>
