<svg width="24" height="24" viewBox="0 0 24 24" fill="none" xmlns="http://www.w3.org/2000/svg">
<path d="M18.5996 4.79978C18.3632 4.79978 18.1291 4.84634 17.9107 4.9368C17.6924 5.02726 17.4939 5.15984 17.3268 5.32699C17.1596 5.49413 17.0271 5.69257 16.9366 5.91095C16.8461 6.12934 16.7996 6.3634 16.7996 6.59978C16.7996 6.83616 16.8461 7.07023 16.9366 7.28861C17.0271 7.507 17.1596 7.70543 17.3268 7.87257C17.4939 8.03972 17.6924 8.17231 17.9107 8.26276C18.1291 8.35322 18.3632 8.39978 18.5996 8.39978C19.077 8.39978 19.5348 8.21014 19.8724 7.87257C20.2099 7.53501 20.3996 7.07717 20.3996 6.59978C20.3996 6.12239 20.2099 5.66455 19.8724 5.32699C19.5348 4.98942 19.077 4.79978 18.5996 4.79978ZM15.5996 6.59978C15.5997 5.95697 15.8064 5.33121 16.189 4.81471C16.5717 4.2982 17.1102 3.91827 17.725 3.73088C18.3399 3.5435 18.9988 3.55857 19.6044 3.77388C20.2101 3.98919 20.7306 4.39336 21.0893 4.92682C21.4479 5.46029 21.6257 6.09484 21.5965 6.73699C21.5672 7.37913 21.3325 7.99491 20.9269 8.49359C20.5213 8.99227 19.9662 9.34748 19.3435 9.50688C18.7208 9.66629 18.0633 9.62145 17.468 9.37898L15.9296 11.6866C16.2221 11.9821 16.45 12.3352 16.5988 12.7235C16.7476 13.1118 16.814 13.5268 16.7939 13.9422C16.7738 14.3575 16.6675 14.7641 16.4819 15.1362C16.2963 15.5083 16.0353 15.8378 15.7156 16.1036C15.3959 16.3695 15.0244 16.566 14.6247 16.6807C14.225 16.7954 13.8058 16.8257 13.3937 16.7697C12.9817 16.7138 12.5858 16.5728 12.2311 16.3557C11.8765 16.1386 11.5708 15.8501 11.3336 15.5086L8.33837 16.7926C8.48876 17.5207 8.36344 18.2787 7.98672 18.9196C7.61 19.5605 7.00871 20.0387 6.29942 20.2615C5.59014 20.4843 4.8234 20.4358 4.14785 20.1254C3.47229 19.815 2.93606 19.2648 2.64311 18.5815C2.35016 17.8982 2.32136 17.1305 2.5623 16.4272C2.80324 15.7239 3.29675 15.135 3.94715 14.7749C4.59755 14.4148 5.35851 14.309 6.08249 14.478C6.80647 14.647 7.4419 15.0789 7.86557 15.6898L10.8608 14.4058C10.7505 13.8732 10.787 13.3207 10.9665 12.8073C11.146 12.2939 11.4616 11.8389 11.8797 11.4911C12.2978 11.1432 12.8026 10.9156 13.3401 10.8325C13.8776 10.7494 14.4276 10.814 14.9312 11.0194L16.4696 8.71298C15.9112 8.15154 15.5984 7.39158 15.5996 6.59978ZM11.9996 13.7998C11.9996 14.2772 12.1892 14.735 12.5268 15.0726C12.8643 15.4101 13.3222 15.5998 13.7996 15.5998C14.277 15.5998 14.7348 15.4101 15.0724 15.0726C15.4099 14.735 15.5996 14.2772 15.5996 13.7998C15.5996 13.3224 15.4099 12.8646 15.0724 12.527C14.7348 12.1894 14.277 11.9998 13.7996 11.9998C13.3222 11.9998 12.8643 12.1894 12.5268 12.527C12.1892 12.8646 11.9996 13.3224 11.9996 13.7998ZM3.59957 17.3998C3.59957 17.8772 3.78922 18.335 4.12678 18.6726C4.46435 19.0101 4.92218 19.1998 5.39957 19.1998C5.87696 19.1998 6.3348 19.0101 6.67237 18.6726C7.00993 18.335 7.19957 17.8772 7.19957 17.3998C7.19957 16.9224 7.00993 16.4646 6.67237 16.127C6.3348 15.7894 5.87696 15.5998 5.39957 15.5998C4.92218 15.5998 4.46435 15.7894 4.12678 16.127C3.78922 16.4646 3.59957 16.9224 3.59957 17.3998Z" fill="#32B5D6"/>
</svg>
