<svg width="21" height="18" viewBox="0 0 21 18" fill="none" xmlns="http://www.w3.org/2000/svg">
<path d="M2.65633 5.625C2.65633 5.17745 2.85726 4.74822 3.21492 4.43176C3.57258 4.11529 4.05767 3.9375 4.56348 3.9375H12.1921C12.6979 3.9375 13.183 4.11529 13.5407 4.43176C13.8983 4.74822 14.0993 5.17745 14.0993 5.625V12.375C14.0993 12.8226 13.8983 13.2518 13.5407 13.5682C13.183 13.8847 12.6979 14.0625 12.1921 14.0625H4.56348C4.05767 14.0625 3.57258 13.8847 3.21492 13.5682C2.85726 13.2518 2.65633 12.8226 2.65633 12.375V5.625ZM4.56348 2.8125C3.72047 2.8125 2.91198 3.10882 2.31588 3.63626C1.71977 4.16371 1.38489 4.87908 1.38489 5.625V12.375C1.38489 13.1209 1.71977 13.8363 2.31588 14.3637C2.91198 14.8912 3.72047 15.1875 4.56348 15.1875H12.1921C12.6095 15.1875 13.0229 15.1148 13.4085 14.9734C13.7942 14.8321 14.1446 14.6249 14.4397 14.3637C14.7349 14.1026 14.969 13.7925 15.1287 13.4513C15.2885 13.1101 15.3707 12.7443 15.3707 12.375V11.8125L17.6593 13.3313C17.801 13.4253 17.9694 13.4825 18.1458 13.4966C18.3222 13.5107 18.4995 13.481 18.6579 13.4109C18.8163 13.3408 18.9495 13.2331 19.0426 13.0998C19.1357 12.9665 19.185 12.8129 19.185 12.6562V5.34938C19.185 5.19268 19.1357 5.03908 19.0426 4.90579C18.9495 4.7725 18.8163 4.66478 18.6579 4.5947C18.4995 4.52463 18.3222 4.49496 18.1458 4.50903C17.9694 4.52311 17.801 4.58036 17.6593 4.67438L15.3707 6.1875V5.625C15.3707 5.25566 15.2885 4.88993 15.1287 4.5487C14.969 4.20747 14.7349 3.89743 14.4397 3.63626C14.1446 3.3751 13.7942 3.16793 13.4085 3.02659C13.0229 2.88525 12.6095 2.8125 12.1921 2.8125H4.56348ZM15.3707 7.59375L17.9136 5.91075V12.0938L15.3707 10.4062V7.59375Z" fill="white"/>
</svg>
