<svg width="28" height="28" viewBox="0 0 28 28" fill="none" xmlns="http://www.w3.org/2000/svg">
<path d="M27.5008 0L20.7595 6.95H13.9241L20.6635 0H27.5008Z" fill="#59CAE3"/>
<path d="M20.76 6.95V18.142C20.76 18.944 20.4437 19.6703 19.9333 20.1965L24.6965 25.1085C26.427 23.3239 27.4994 20.8587 27.4994 18.1411V0L20.76 6.95Z" fill="#59CAE3"/>
<path d="M7.08778 18.1429V9.85785C7.08778 9.05586 7.40413 8.32959 7.91443 7.80334L3.15129 2.89038C1.42078 4.67497 0.348389 7.14019 0.348389 9.85785V18.1429C0.348389 20.8606 1.42078 23.3248 3.15129 25.1104L7.91443 20.1984C7.40413 19.6721 7.08778 18.9449 7.08778 18.1439V18.1429Z" fill="#59CAE3"/>
<path d="M19.9342 20.1975C19.4239 20.7238 18.7187 21.05 17.942 21.05H9.90798C9.13029 21.05 8.42603 20.7238 7.91573 20.1975L3.15259 25.1095C4.8831 26.8941 7.27362 28 9.90893 28H17.9429C20.5782 28 22.9678 26.8941 24.6992 25.1095L19.9361 20.1975H19.9342Z" fill="#2897C4"/>
<path d="M13.9242 0V6.95H9.90673C9.12998 6.95 8.42572 7.27623 7.91448 7.80248L3.15039 2.88952C4.88279 1.10493 7.27236 0 9.90673 0H13.9242Z" fill="#2897C4"/>
</svg>
