<svg width="123" height="28" viewBox="0 0 123 28" fill="none" xmlns="http://www.w3.org/2000/svg">
<path d="M10.4745 7.9696C5.0672 7.9696 0.725464 12.3317 0.725464 17.9848C0.725464 23.6379 5.0672 28 10.4745 28C15.8817 28 20.2235 23.6379 20.2235 17.9848C20.2235 12.3317 15.8817 7.9696 10.4745 7.9696ZM10.4745 22.4622C8.08422 22.4622 6.24284 20.6786 6.24284 17.9848C6.24284 15.291 8.08422 13.5074 10.4745 13.5074C12.8647 13.5074 14.7044 15.291 14.7044 17.9848C14.7044 20.6786 12.8664 22.4622 10.4745 22.4622Z" fill="#4996FF"/>
<path d="M34.1309 7.96951C31.7 7.96951 29.862 8.87792 28.8693 10.2825V0.911865H23.3502V27.4706H28.8693V17.113C28.8693 14.4175 30.2668 13.2033 32.2895 13.2033C34.0563 13.2033 35.4928 14.3057 35.4928 16.6553V27.4706H41.0119V15.8203C41.0119 10.6982 37.8475 7.96776 34.1326 7.96776L34.1309 7.96951Z" fill="#4996FF"/>
<path d="M50.3189 11.8757V8.49713H44.7998V27.4689H50.3189V18.8914C50.3189 15.1373 53.5544 14.1869 55.8379 14.5678V8.11804C53.5189 8.11804 51.0524 9.33217 50.3189 11.8757Z" fill="#4996FF"/>
<path d="M71.213 8.49893V10.2826C70.0001 8.84133 68.1977 7.9696 65.7329 7.9696C60.9118 7.9696 56.9393 12.3317 56.9393 17.9848C56.9393 23.6379 60.9118 28 65.7329 28C68.196 28 69.9984 27.1283 71.213 25.6871V27.4707H76.7321V8.49893H71.213ZM66.8357 22.6142C64.2964 22.6142 62.4584 20.8306 62.4584 17.9848C62.4584 15.1391 64.2964 13.3554 66.8357 13.3554C69.375 13.3554 71.213 15.1391 71.213 17.9848C71.213 20.8306 69.375 22.6142 66.8357 22.6142Z" fill="#4996FF"/>
<path d="M83.9043 20.7921C81.9935 20.7921 80.4113 22.4238 80.4113 24.3943C80.4113 26.3649 81.9935 28 83.9043 28C85.8151 28 87.4007 26.3684 87.4007 24.3943C87.4007 22.4203 85.8185 20.7921 83.9043 20.7921Z" fill="#4996FF"/>
<path d="M105.318 0.911621H97.8141L89.0594 27.4704H95.4967L96.7858 23.2952H106.35L107.639 27.4704H114.076L105.318 0.911621ZM98.5493 17.6054L101.565 7.85397L104.58 17.6054H98.5476H98.5493Z" fill="#3873CB"/>
<path d="M115.544 3.41527C115.544 1.55652 117.053 0 118.856 0C120.658 0 122.167 1.55478 122.167 3.41527C122.167 5.27576 120.66 6.83054 118.856 6.83054C117.052 6.83054 115.544 5.27576 115.544 3.41527Z" fill="#3873CB"/>
<path d="M121.618 8.49902H116.099V27.4691H121.618V8.49902Z" fill="#3873CB"/>
</svg>
