<svg width="22" height="22" viewBox="0 0 22 22" fill="none" xmlns="http://www.w3.org/2000/svg">
<path d="M21.1253 0.5L16.0693 5.7125H10.9427L15.9973 0.5H21.1253Z" fill="white"/>
<path d="M16.0698 5.7125V14.1065C16.0698 14.708 15.8326 15.2527 15.4498 15.6474L19.0222 19.3314C20.3201 17.993 21.1244 16.144 21.1244 14.1058V0.5L16.0698 5.7125Z" fill="white"/>
<path d="M5.81565 14.1072V7.89345C5.81565 7.29195 6.05292 6.74726 6.43564 6.35257L2.86328 2.66785C1.5654 4.00629 0.761108 5.8552 0.761108 7.89345V14.1072C0.761108 16.1455 1.5654 17.9937 2.86328 19.3328L6.43564 15.6488C6.05292 15.2542 5.81565 14.7087 5.81565 14.108V14.1072Z" fill="white"/>
<path d="M15.4504 15.6481C15.0676 16.0428 14.5387 16.2874 13.9562 16.2874H7.93068C7.34741 16.2874 6.81922 16.0428 6.43649 15.6481L2.86414 19.3321C4.16202 20.6705 5.95491 21.4999 7.93139 21.4999H13.9569C15.9334 21.4999 17.7255 20.6705 19.0241 19.3321L15.4518 15.6481H15.4504Z" fill="white" fill-opacity="0.6"/>
<path d="M10.9427 0.5V5.7125H7.92956C7.34699 5.7125 6.8188 5.95717 6.43537 6.35186L2.8623 2.66714C4.1616 1.3287 5.95378 0.5 7.92956 0.5H10.9427Z" fill="white" fill-opacity="0.6"/>
</svg>
