<svg width="79" height="19" viewBox="0 0 79 19" fill="none" xmlns="http://www.w3.org/2000/svg">
<path d="M6.81128 5.62329C3.33518 5.62329 0.544067 8.42751 0.544067 12.0616C0.544067 15.6958 3.33518 18.5 6.81128 18.5C10.2874 18.5 13.0785 15.6958 13.0785 12.0616C13.0785 8.42751 10.2874 5.62329 6.81128 5.62329ZM6.81128 14.94C5.2747 14.94 4.09095 13.7934 4.09095 12.0616C4.09095 10.3299 5.2747 9.18331 6.81128 9.18331C8.34786 9.18331 9.53052 10.3299 9.53052 12.0616C9.53052 13.7934 8.34895 14.94 6.81128 14.94Z" fill="white"/>
<path d="M22.019 5.62324C20.4563 5.62324 19.2748 6.20722 18.6366 7.11014V1.08618H15.0886V18.1597H18.6366V11.5012C18.6366 9.76836 19.535 8.98785 20.8353 8.98785C21.9711 8.98785 22.8946 9.69648 22.8946 11.207V18.1597H26.4426V10.6702C26.4426 7.37742 24.4083 5.62212 22.0201 5.62212L22.019 5.62324Z" fill="white"/>
<path d="M32.4255 8.1344V5.96245H28.8776V18.1586H32.4255V12.6445C32.4255 10.2311 34.5055 9.62017 35.9735 9.86499V5.71875C34.4827 5.71875 32.8971 6.49926 32.4255 8.1344Z" fill="white"/>
<path d="M45.8575 5.96357V7.11019C45.0777 6.18369 43.919 5.62329 42.3345 5.62329C39.2352 5.62329 36.6815 8.42751 36.6815 12.0616C36.6815 15.6958 39.2352 18.5 42.3345 18.5C43.9179 18.5 45.0766 17.9396 45.8575 17.0131V18.1597H49.4054V5.96357H45.8575ZM43.0435 15.0377C41.4111 15.0377 40.2295 13.8911 40.2295 12.0616C40.2295 10.2322 41.4111 9.0856 43.0435 9.0856C44.6759 9.0856 45.8575 10.2322 45.8575 12.0616C45.8575 13.8911 44.6759 15.0377 43.0435 15.0377Z" fill="white"/>
<path d="M54.0162 13.8663C52.7878 13.8663 51.7706 14.9152 51.7706 16.182C51.7706 17.4488 52.7878 18.5 54.0162 18.5C55.2445 18.5 56.2639 17.4511 56.2639 16.182C56.2639 14.913 55.2467 13.8663 54.0162 13.8663Z" fill="white"/>
<path d="M67.7826 1.08618H62.9583L57.3303 18.1597H61.4685L62.2973 15.4756H68.4458L69.2745 18.1597H73.4127L67.7826 1.08618ZM63.4309 11.8179L65.3693 5.54912L67.3078 11.8179H63.4298H63.4309Z" fill="white" fill-opacity="0.6"/>
<path d="M74.356 2.69553C74.356 1.50062 75.3263 0.5 76.4849 0.5C77.6436 0.5 78.614 1.4995 78.614 2.69553C78.614 3.89156 77.6447 4.89106 76.4849 4.89106C75.3252 4.89106 74.356 3.89156 74.356 2.69553Z" fill="white" fill-opacity="0.6"/>
<path d="M78.2601 5.96362H74.7122V18.1586H78.2601V5.96362Z" fill="white" fill-opacity="0.6"/>
</svg>
