<svg width="16" height="16" viewBox="0 0 16 16" fill="none" xmlns="http://www.w3.org/2000/svg">
<path d="M14 14.0001L11.1047 11.1048M11.1047 11.1048C11.5999 10.6095 11.9928 10.0216 12.2608 9.3745C12.5289 8.72742 12.6668 8.03387 12.6668 7.33347C12.6668 6.63307 12.5289 5.93953 12.2608 5.29244C11.9928 4.64535 11.5999 4.0574 11.1047 3.56214C10.6094 3.06688 10.0215 2.67402 9.37438 2.40599C8.72729 2.13795 8.03375 2 7.33335 2C6.63295 2 5.9394 2.13795 5.29232 2.40599C4.64523 2.67402 4.05727 3.06688 3.56202 3.56214C2.5618 4.56236 1.99988 5.91895 1.99988 7.33347C1.99988 8.748 2.5618 10.1046 3.56202 11.1048C4.56224 12.105 5.91882 12.6669 7.33335 12.6669C8.74787 12.6669 10.1045 12.105 11.1047 11.1048Z" stroke="#0095FF" stroke-linecap="round" stroke-linejoin="round"/>
</svg>
