<svg width="21" height="18" viewBox="0 0 21 18" fill="none" xmlns="http://www.w3.org/2000/svg">
<path d="M16.8902 2.8125H4.17577C3.12248 2.8125 2.26862 3.56802 2.26862 4.5V13.5C2.26862 14.432 3.12248 15.1875 4.17577 15.1875H16.8902C17.9434 15.1875 18.7973 14.432 18.7973 13.5V4.5C18.7973 3.56802 17.9434 2.8125 16.8902 2.8125Z" stroke="#00A8BA" stroke-width="1.125" stroke-linejoin="round"/>
<path d="M13.7116 7.3125C14.4138 7.3125 14.983 6.80882 14.983 6.1875C14.983 5.56618 14.4138 5.0625 13.7116 5.0625C13.0094 5.0625 12.4401 5.56618 12.4401 6.1875C12.4401 6.80882 13.0094 7.3125 13.7116 7.3125Z" stroke="#00A8BA" stroke-width="1.125" stroke-miterlimit="10"/>
<path d="M12.4401 11.8051L8.83798 8.62385C8.60876 8.42108 8.30068 8.30342 7.9767 8.29493C7.65271 8.28643 7.3373 8.38774 7.09491 8.57815L2.26862 12.375M9.26152 15.1875L14.1621 10.8513C14.3862 10.6526 14.6862 10.5353 15.0031 10.5223C15.3201 10.5092 15.631 10.6015 15.875 10.781L18.7973 12.9375" stroke="#00A8BA" stroke-width="1.125" stroke-linecap="round" stroke-linejoin="round"/>
</svg>
