<svg width="24" height="24" viewBox="0 0 24 24" fill="none" xmlns="http://www.w3.org/2000/svg">
<path d="M22.875 14.25C22.875 14.3495 22.8355 14.4449 22.7652 14.5152C22.6949 14.5855 22.5995 14.625 22.5 14.625H20.625V16.5C20.625 16.5995 20.5855 16.6949 20.5152 16.7652C20.4449 16.8355 20.3495 16.875 20.25 16.875C20.1506 16.875 20.0552 16.8355 19.9849 16.7652C19.9145 16.6949 19.875 16.5995 19.875 16.5V14.625H18C17.9006 14.625 17.8052 14.5855 17.7349 14.5152C17.6645 14.4449 17.625 14.3495 17.625 14.25C17.625 14.1506 17.6645 14.0552 17.7349 13.9849C17.8052 13.9145 17.9006 13.875 18 13.875H19.875V12C19.875 11.9006 19.9145 11.8052 19.9849 11.7349C20.0552 11.6645 20.1506 11.625 20.25 11.625C20.3495 11.625 20.4449 11.6645 20.5152 11.7349C20.5855 11.8052 20.625 11.9006 20.625 12V13.875H22.5C22.5995 13.875 22.6949 13.9146 22.7652 13.9849C22.8355 14.0552 22.875 14.1506 22.875 14.25ZM6.00003 6.00004H7.50003V7.50004C7.50003 7.59949 7.53954 7.69488 7.60986 7.7652C7.68019 7.83553 7.77557 7.87504 7.87503 7.87504C7.97449 7.87504 8.06987 7.83553 8.14019 7.7652C8.21052 7.69488 8.25003 7.59949 8.25003 7.50004V6.00004H9.75003C9.84949 6.00004 9.94487 5.96053 10.0152 5.8902C10.0855 5.81988 10.125 5.72449 10.125 5.62504C10.125 5.52558 10.0855 5.4302 10.0152 5.35987C9.94487 5.28955 9.84949 5.25004 9.75003 5.25004H8.25003V3.75004C8.25003 3.65058 8.21052 3.5552 8.14019 3.48487C8.06987 3.41455 7.97449 3.37504 7.87503 3.37504C7.77557 3.37504 7.68019 3.41455 7.60986 3.48487C7.53954 3.5552 7.50003 3.65058 7.50003 3.75004V5.25004H6.00003C5.90057 5.25004 5.80519 5.28955 5.73486 5.35987C5.66454 5.4302 5.62503 5.52558 5.62503 5.62504C5.62503 5.72449 5.66454 5.81988 5.73486 5.8902C5.80519 5.96053 5.90057 6.00004 6.00003 6.00004ZM17.25 18.375H16.125V17.25C16.125 17.1506 16.0855 17.0552 16.0152 16.9849C15.9449 16.9145 15.8495 16.875 15.75 16.875C15.6506 16.875 15.5552 16.9145 15.4849 16.9849C15.4145 17.0552 15.375 17.1506 15.375 17.25V18.375H14.25C14.1506 18.375 14.0552 18.4145 13.9849 18.4849C13.9145 18.5552 13.875 18.6506 13.875 18.75C13.875 18.8495 13.9145 18.9449 13.9849 19.0152C14.0552 19.0855 14.1506 19.125 14.25 19.125H15.375V20.25C15.375 20.3495 15.4145 20.4449 15.4849 20.5152C15.5552 20.5855 15.6506 20.625 15.75 20.625C15.8495 20.625 15.9449 20.5855 16.0152 20.5152C16.0855 20.4449 16.125 20.3495 16.125 20.25V19.125H17.25C17.3495 19.125 17.4449 19.0855 17.5152 19.0152C17.5855 18.9449 17.625 18.8495 17.625 18.75C17.625 18.6506 17.5855 18.5552 17.5152 18.4849C17.4449 18.4145 17.3495 18.375 17.25 18.375ZM16.7651 10.7653L6.79553 20.7349C6.58435 20.9455 6.29827 21.0638 6.00003 21.0638C5.70179 21.0638 5.41571 20.9455 5.20453 20.7349L3.26526 18.7955C3.16077 18.6911 3.07788 18.5671 3.02133 18.4306C2.96478 18.2941 2.93567 18.1478 2.93567 18C2.93567 17.8523 2.96478 17.706 3.02133 17.5695C3.07788 17.433 3.16077 17.309 3.26526 17.2045L17.2045 3.26522C17.4157 3.05458 17.7018 2.93629 18 2.93628C18.2983 2.93627 18.5844 3.05455 18.7955 3.26518L20.7348 5.20453C20.8393 5.30899 20.9222 5.433 20.9787 5.5695C21.0353 5.70599 21.0644 5.85229 21.0644 6.00004C21.0644 6.14778 21.0353 6.29408 20.9787 6.43057C20.9222 6.56707 20.8393 6.69108 20.7348 6.79554L16.7652 10.7651L16.7651 10.7653ZM14.0303 7.50004L16.5 9.96972L20.2045 6.26522C20.2394 6.23041 20.267 6.18903 20.2858 6.14353C20.3047 6.09804 20.3144 6.04928 20.3144 6.00004C20.3144 5.95079 20.3047 5.90203 20.2858 5.85654C20.267 5.81104 20.2394 5.76971 20.2045 5.7349L18.2653 3.79554C18.1948 3.72532 18.0995 3.6859 18 3.6859C17.9006 3.68591 17.8052 3.72536 17.7348 3.79558L14.0303 7.50004ZM15.9697 10.5L13.5 8.03036L3.79553 17.7349C3.7607 17.7697 3.73307 17.811 3.71422 17.8565C3.69537 17.902 3.68567 17.9508 3.68567 18C3.68567 18.0493 3.69537 18.098 3.71422 18.1435C3.73307 18.189 3.7607 18.2304 3.79553 18.2652L5.7348 20.2045C5.80521 20.2748 5.90059 20.3142 6.00003 20.3142C6.09947 20.3142 6.19485 20.2748 6.26526 20.2045L15.9697 10.5Z" fill="#AAB3BF" stroke="#AAB3BF" stroke-width="0.5"/>
</svg>
