<svg width="24" height="24" viewBox="0 0 24 24" fill="none" xmlns="http://www.w3.org/2000/svg">
<path d="M3.9419 20.9833C4.06343 20.9833 4.16188 20.8849 4.16188 20.7633V14.5804C4.16188 14.4589 4.06343 14.3605 3.9419 14.3605H2.18209C2.1532 14.3605 2.1246 14.3662 2.09791 14.3772C2.07121 14.3883 2.04696 14.4045 2.02653 14.4249C2.00611 14.4453 1.9899 14.4696 1.97885 14.4963C1.9678 14.523 1.96211 14.5516 1.96212 14.5804V20.7633C1.96212 20.8849 2.06057 20.9833 2.18209 20.9833H3.9419ZM3.9419 21.8632H2.18209C1.57462 21.8632 1.08221 21.3708 1.08221 20.7633V14.5804C1.08221 13.973 1.57462 13.4806 2.18209 13.4806H3.9419C4.54937 13.4806 5.04179 13.973 5.04179 14.5804V20.7633C5.04179 21.3708 4.54937 21.8632 3.9419 21.8632ZM9.92281 20.9833C10.0443 20.9833 10.1428 20.8849 10.1428 20.7633V13.3037C10.1428 13.1822 10.0443 13.0837 9.92281 13.0837H8.163C8.13411 13.0837 8.1055 13.0894 8.07881 13.1005C8.05212 13.1115 8.02787 13.1277 8.00744 13.1481C7.98701 13.1686 7.97081 13.1928 7.95976 13.2195C7.9487 13.2462 7.94302 13.2748 7.94302 13.3037V20.7633C7.94302 20.8849 8.04148 20.9833 8.163 20.9833H9.92281ZM9.92281 21.8632H8.163C7.55553 21.8632 7.06312 21.3708 7.06312 20.7633V13.3037C7.06312 12.6962 7.55553 12.2038 8.163 12.2038H9.92281C10.5303 12.2038 11.0227 12.6962 11.0227 13.3037V20.7633C11.0227 21.3708 10.5303 21.8632 9.92281 21.8632ZM15.9037 20.9966C16.0252 20.9966 16.1237 20.8981 16.1237 20.7766V12.04C16.1237 11.9186 16.0251 11.82 15.9037 11.82H14.1439C14.0225 11.82 13.9239 11.9186 13.9239 12.04V20.7766C13.9239 20.8981 14.0224 20.9966 14.1439 20.9966H15.9037ZM15.9037 21.8765H14.1439C13.5364 21.8765 13.044 21.3841 13.044 20.7766V12.04C13.044 11.4327 13.5365 10.9401 14.1439 10.9401H15.9037C16.5111 10.9401 17.0036 11.4327 17.0036 12.04V20.7766C17.0036 21.3841 16.5112 21.8765 15.9037 21.8765ZM21.8846 20.9966C22.0061 20.9966 22.1046 20.8982 22.1046 20.7766V10.9402C22.1046 10.8187 22.0061 10.7202 21.8846 10.7202H20.1248C20.0959 10.7202 20.0673 10.7259 20.0406 10.7369C20.0139 10.748 19.9897 10.7642 19.9693 10.7846C19.9488 10.8051 19.9326 10.8293 19.9216 10.856C19.9105 10.8827 19.9048 10.9113 19.9048 10.9402V20.7766C19.9048 20.8982 20.0033 20.9966 20.1248 20.9966H21.8846ZM21.8846 21.8765H20.1248C19.5173 21.8765 19.0249 21.3841 19.0249 20.7766V10.9402C19.0249 10.3327 19.5173 9.8403 20.1248 9.8403H21.8846C22.4921 9.8403 22.9845 10.3327 22.9845 10.9402V20.7766C22.9845 21.3841 22.4921 21.8765 21.8846 21.8765ZM21.7513 3.79074C15.5515 7.2837 8.63187 9.34432 1.4134 9.78095C1.17087 9.79562 0.986145 10.0041 1.00082 10.2467C1.01549 10.4892 1.22399 10.6739 1.46653 10.6592C8.81889 10.2145 15.8679 8.11536 22.1832 4.55735C22.3949 4.43808 22.4698 4.16979 22.3506 3.95808C22.2313 3.74638 21.963 3.67147 21.7513 3.79074Z" fill="#515F72" stroke="#515F72" stroke-width="0.4"/>
<path d="M20.3602 3.87991L22.5597 3.88321C22.8027 3.88358 23 3.68691 23.0004 3.44393C23.0007 3.20094 22.804 3.00367 22.5611 3.00331L20.3615 3C20.1185 2.99964 19.9213 3.1963 19.9209 3.43929C19.9205 3.68227 20.1172 3.87954 20.3602 3.87991Z" fill="#515F72" stroke="#515F72" stroke-width="0.4"/>
<path d="M22.1201 3.44192L22.1135 5.62937C22.1128 5.87236 22.3092 6.06993 22.5521 6.07066C22.7951 6.07139 22.9927 5.87502 22.9934 5.63204L23 3.44458C23.0008 3.2016 22.8044 3.00403 22.5614 3.0033C22.3184 3.00257 22.1209 3.19894 22.1201 3.44192Z" fill="#515F72" stroke="#515F72" stroke-width="0.4"/>
</svg>
