<svg width="24" height="24" viewBox="0 0 24 24" fill="none" xmlns="http://www.w3.org/2000/svg">
<path d="M9.59241 3.20027C10.2043 2.67883 10.5102 2.41811 10.8301 2.26522C11.57 1.91159 12.43 1.91159 13.1699 2.26522C13.4898 2.41811 13.7957 2.67883 14.4076 3.20027C14.6511 3.40781 14.7729 3.51158 14.903 3.59874C15.2011 3.79855 15.5358 3.93722 15.8879 4.00672C16.0415 4.03705 16.2009 4.04978 16.52 4.07523C17.3213 4.13917 17.722 4.17115 18.0563 4.28923C18.8295 4.56234 19.4377 5.17051 19.7108 5.94371C19.8289 6.27801 19.8608 6.6787 19.9248 7.48008C19.9502 7.79904 19.9629 7.95851 19.9933 8.1121C20.0628 8.46418 20.2014 8.79896 20.4013 9.09707C20.4885 9.22712 20.5922 9.34888 20.7998 9.59241C21.3212 10.2043 21.582 10.5103 21.7349 10.8301C22.0884 11.5699 22.0884 12.43 21.7349 13.1699C21.582 13.4898 21.3212 13.7957 20.7998 14.4076C20.5922 14.6511 20.4885 14.7729 20.4013 14.903C20.2014 15.2011 20.0628 15.5358 19.9933 15.888C19.9629 16.0415 19.9502 16.201 19.9248 16.5199C19.8608 17.3213 19.8289 17.722 19.7108 18.0563C19.4377 18.8295 18.8295 19.4377 18.0563 19.7108C17.722 19.8289 17.3213 19.8608 16.52 19.9248C16.2009 19.9502 16.0415 19.963 15.8879 19.9933C15.5358 20.0628 15.2011 20.2014 14.903 20.4013C14.7729 20.4884 14.6511 20.5922 14.4076 20.7998C13.7957 21.3212 13.4898 21.5819 13.1699 21.7348C12.43 22.0884 11.57 22.0884 10.8301 21.7348C10.5102 21.5819 10.2043 21.3212 9.59241 20.7998C9.34888 20.5922 9.22711 20.4884 9.09706 20.4013C8.79896 20.2014 8.46418 20.0628 8.11211 19.9933C7.95852 19.963 7.79904 19.9502 7.48009 19.9248C6.6787 19.8608 6.278 19.8289 5.94371 19.7108C5.17051 19.4377 4.56233 18.8295 4.28923 18.0563C4.17116 17.722 4.13918 17.3213 4.07523 16.5199C4.04977 16.201 4.03705 16.0415 4.00672 15.888C3.93722 15.5358 3.79855 15.2011 3.59874 14.903C3.51158 14.7729 3.40781 14.6511 3.20027 14.4076C2.67883 13.7957 2.41811 13.4898 2.26521 13.1699C1.9116 12.43 1.9116 11.5699 2.26521 10.8301C2.41811 10.5102 2.67883 10.2043 3.20027 9.59241C3.40781 9.34888 3.51158 9.22712 3.59874 9.09707C3.79855 8.79896 3.93722 8.46418 4.00672 8.1121C4.03705 7.95851 4.04977 7.79904 4.07523 7.48008C4.13918 6.6787 4.17116 6.27801 4.28923 5.94371C4.56233 5.17051 5.17051 4.56234 5.94371 4.28923C6.278 4.17115 6.6787 4.13917 7.48009 4.07523C7.79904 4.04978 7.95852 4.03705 8.11211 4.00672C8.46418 3.93722 8.79896 3.79855 9.09706 3.59874C9.22712 3.51158 9.34888 3.40781 9.59241 3.20027Z" stroke="#515F72" stroke-width="1.4"/>
<path d="M8.74414 15.256L15.255 8.74512" stroke="#515F72" stroke-width="1.4" stroke-linecap="round"/>
<path d="M15.798 14.7134C15.798 15.3128 15.3122 15.7986 14.7128 15.7986C14.1135 15.7986 13.6277 15.3128 13.6277 14.7134C13.6277 14.1141 14.1135 13.6283 14.7128 13.6283C15.3122 13.6283 15.798 14.1141 15.798 14.7134Z" fill="#515F72"/>
<path d="M10.3723 9.28766C10.3723 9.88699 9.8865 10.3728 9.28717 10.3728C8.68787 10.3728 8.20203 9.88699 8.20203 9.28766C8.20203 8.68836 8.68787 8.20251 9.28717 8.20251C9.8865 8.20251 10.3723 8.68836 10.3723 9.28766Z" fill="#515F72"/>
</svg>
