<svg width="26" height="26" viewBox="0 0 26 26" fill="none" xmlns="http://www.w3.org/2000/svg">
<g clip-path="url(#clip0_0_74)">
<rect width="25" height="25" transform="translate(0.5 0.5)" fill="#EFF9FC"/>
<path d="M25.3291 11.4183L10.0947 2.62319C9.6573 2.3715 9.13793 2.3035 8.65046 2.43409C8.16298 2.56468 7.74716 2.88321 7.49414 3.31987L5.74023 6.35756L4.57266 8.37963C4.32082 8.81721 4.2528 9.3368 4.38351 9.82446C4.51422 10.3121 4.83299 10.728 5.26992 10.981L10.4932 13.9964L9.68086 15.3816C9.57281 15.5649 9.41888 15.717 9.23422 15.8228C9.04957 15.9285 8.84055 15.9844 8.62773 15.9849H5.57812V13.6607C5.57812 13.57 5.54211 13.4831 5.47801 13.419C5.41392 13.3549 5.32698 13.3189 5.23633 13.3189H3.38086V12.8779C3.38039 12.4766 3.22077 12.0918 2.937 11.8081C2.65323 11.5243 2.2685 11.3647 1.86719 11.3642H0.841797C0.796904 11.3642 0.752447 11.373 0.710967 11.3902C0.669486 11.4073 0.631797 11.4325 0.600053 11.4643C0.568309 11.496 0.543133 11.5337 0.525965 11.5752C0.508798 11.6166 0.499974 11.6611 0.5 11.706V23.2913C0.499974 23.3362 0.508798 23.3807 0.525965 23.4222C0.543133 23.4637 0.568309 23.5013 0.600053 23.5331C0.631797 23.5648 0.669486 23.59 0.710967 23.6072C0.752447 23.6243 0.796904 23.6332 0.841797 23.6331H1.86719C2.2685 23.6327 2.65323 23.4731 2.937 23.1893C3.22077 22.9055 3.38039 22.5208 3.38086 22.1195V21.0337H5.23633C5.32698 21.0337 5.41392 20.9977 5.47801 20.9336C5.54211 20.8695 5.57812 20.7826 5.57812 20.6919V19.0122H8.62773C9.36817 19.0107 10.0954 18.8163 10.738 18.4484C11.3805 18.0804 11.9161 17.5515 12.2922 16.9136L13.115 15.5105L15.9781 17.1634C16.2664 17.3307 16.5937 17.4189 16.927 17.4193C17.0945 17.4192 17.2613 17.3971 17.423 17.3537C17.7339 17.271 18.0186 17.1104 18.2502 16.8871C18.6247 17.0608 19.0325 17.151 19.4453 17.1515C19.6983 17.1513 19.9502 17.118 20.1945 17.0523C20.8177 16.8867 21.3664 16.5149 21.7514 15.9976L22.4514 16.4017C22.4902 16.4242 22.5332 16.4388 22.5777 16.4446C22.6222 16.4505 22.6674 16.4476 22.7108 16.4359C22.7542 16.4243 22.7948 16.4042 22.8305 16.3769C22.8661 16.3495 22.8959 16.3154 22.9184 16.2765L25.4535 11.8857C25.476 11.8468 25.4907 11.8039 25.4966 11.7594C25.5026 11.7149 25.4997 11.6696 25.4881 11.6262C25.4766 11.5828 25.4566 11.5421 25.4293 11.5064C25.402 11.4708 25.368 11.4408 25.3291 11.4183ZM2.69727 22.1195C2.69706 22.3396 2.60954 22.5506 2.45391 22.7062C2.29829 22.8618 2.08727 22.9493 1.86719 22.9496H1.18359V12.0478H1.86719C2.08727 12.048 2.29829 12.1355 2.45391 12.2911C2.60954 12.4468 2.69706 12.6578 2.69727 12.8779V22.1195ZM4.89453 20.3501H3.38086V14.0025H4.89453V20.3501ZM11.7023 16.5677C11.3869 17.103 10.9375 17.5468 10.3984 17.8556C9.85926 18.1644 9.24902 18.3275 8.62773 18.3288H5.57812V16.6687H8.62773C8.95969 16.668 9.28574 16.5808 9.57379 16.4158C9.86183 16.2508 10.102 16.0137 10.2705 15.7277L11.0859 14.3386L12.5238 15.1687L11.7023 16.5677ZM16.3203 16.5714L5.61172 10.389C5.33159 10.2269 5.12721 9.96026 5.04344 9.64763C4.95966 9.335 5.00332 9.0019 5.16484 8.72143L6.16094 6.99545L15.9748 12.6615L18.9836 14.3986L17.9873 16.1253L17.9859 16.1275C17.9599 16.1716 17.9312 16.214 17.8998 16.2544V16.2558C17.7196 16.491 17.46 16.6527 17.1694 16.7107C16.8789 16.7688 16.5771 16.7193 16.3203 16.5714ZM20.0189 16.3919C19.5712 16.513 19.0966 16.488 18.6641 16.3206L19.5768 14.74L21.1574 15.6525C20.8663 16.014 20.4673 16.2731 20.0186 16.3919H20.0189ZM22.4984 15.638L20.2881 14.3619L19.6211 13.9769L12.0748 9.62026L6.50312 6.40346L8.08613 3.66166C8.24832 3.3816 8.51498 3.17731 8.8276 3.09361C9.14022 3.0099 9.47328 3.05362 9.75371 3.21518L24.6912 11.8396L22.4984 15.638Z" fill="#32B5D6" stroke="#3FB9D8" stroke-width="0.4"/>
<path d="M21.0379 13.7802C21.237 13.8958 21.463 13.9568 21.6932 13.957C21.8087 13.9569 21.9238 13.9417 22.0354 13.9117C22.3291 13.833 22.5865 13.6549 22.7637 13.4077C22.9408 13.1606 23.0268 12.8596 23.007 12.5562C22.9871 12.2527 22.8626 11.9655 22.6548 11.7435C22.4469 11.5216 22.1685 11.3785 21.867 11.3388C21.5655 11.2991 21.2596 11.3651 21.0013 11.5256C20.7431 11.6862 20.5485 11.9313 20.4507 12.2193C20.3529 12.5072 20.358 12.8202 20.465 13.1048C20.5721 13.3894 20.7746 13.6281 21.0379 13.7802ZM21.1491 12.3265C21.1904 12.2548 21.2455 12.192 21.3113 12.1417C21.377 12.0915 21.452 12.0547 21.5321 12.0335C21.5856 12.0192 21.6407 12.0119 21.6961 12.0119C21.8351 12.0119 21.9702 12.0578 22.0805 12.1424C22.1908 12.227 22.27 12.3457 22.306 12.48C22.342 12.6142 22.3326 12.7566 22.2794 12.885C22.2262 13.0135 22.1321 13.1207 22.0117 13.1902C21.8913 13.2597 21.7513 13.2875 21.6135 13.2693C21.4757 13.2512 21.3477 13.188 21.2495 13.0897C21.1512 12.9914 21.0881 12.8634 21.07 12.7256C21.0519 12.5878 21.0797 12.4479 21.1492 12.3275L21.1491 12.3265Z" fill="#32B5D6" stroke="#3FB9D8" stroke-width="0.4"/>
<path d="M9.38673 10.3187L6.58595 8.70129C6.54706 8.6785 6.50405 8.66362 6.45939 8.65751C6.41473 8.6514 6.3693 8.65419 6.32572 8.66571C6.28214 8.67723 6.24127 8.69726 6.20547 8.72464C6.16966 8.75202 6.13962 8.78622 6.11708 8.82525C6.09454 8.86429 6.07995 8.9074 6.07414 8.9521C6.06833 8.9968 6.07142 9.04221 6.08323 9.08571C6.09504 9.12921 6.11534 9.16995 6.14296 9.20557C6.17057 9.2412 6.20497 9.27101 6.24415 9.29328L9.04571 10.9105C9.1239 10.9513 9.21486 10.9604 9.29957 10.9358C9.38428 10.9111 9.45618 10.8547 9.50023 10.7782C9.54428 10.7018 9.55706 10.6113 9.53591 10.5256C9.51475 10.44 9.4613 10.3658 9.38673 10.3187Z" fill="#32B5D6" stroke="#3FB9D8" stroke-width="0.4"/>
</g>
<defs>
<clipPath id="clip0_0_74">
<rect width="25" height="25" fill="white" transform="translate(0.5 0.5)"/>
</clipPath>
</defs>
</svg>
