<svg width="24" height="24" viewBox="0 0 24 24" fill="none" xmlns="http://www.w3.org/2000/svg">
<path d="M16.285 13.4999C16.5123 13.4999 16.7304 13.4096 16.8911 13.2489C17.0519 13.0881 17.1422 12.8701 17.1422 12.6428C17.1422 12.4155 17.0519 12.1974 16.8911 12.0367C16.7304 11.876 16.5123 11.7856 16.285 11.7856C16.0577 11.7856 15.8397 11.876 15.6789 12.0367C15.5182 12.1974 15.4279 12.4155 15.4279 12.6428C15.4279 12.8701 15.5182 13.0881 15.6789 13.2489C15.8397 13.4096 16.0577 13.4999 16.285 13.4999ZM16.285 16.9285C16.5123 16.9285 16.7304 16.8382 16.8911 16.6775C17.0519 16.5167 17.1422 16.2987 17.1422 16.0714C17.1422 15.844 17.0519 15.626 16.8911 15.4653C16.7304 15.3045 16.5123 15.2142 16.285 15.2142C16.0577 15.2142 15.8397 15.3045 15.6789 15.4653C15.5182 15.626 15.4279 15.844 15.4279 16.0714C15.4279 16.2987 15.5182 16.5167 15.6789 16.6775C15.8397 16.8382 16.0577 16.9285 16.285 16.9285ZM12.8564 12.6428C12.8564 12.8701 12.7661 13.0881 12.6054 13.2489C12.4446 13.4096 12.2266 13.4999 11.9993 13.4999C11.772 13.4999 11.554 13.4096 11.3932 13.2489C11.2325 13.0881 11.1422 12.8701 11.1422 12.6428C11.1422 12.4155 11.2325 12.1974 11.3932 12.0367C11.554 11.876 11.772 11.7856 11.9993 11.7856C12.2266 11.7856 12.4446 11.876 12.6054 12.0367C12.7661 12.1974 12.8564 12.4155 12.8564 12.6428ZM12.8564 16.0714C12.8564 16.2987 12.7661 16.5167 12.6054 16.6775C12.4446 16.8382 12.2266 16.9285 11.9993 16.9285C11.772 16.9285 11.554 16.8382 11.3932 16.6775C11.2325 16.5167 11.1422 16.2987 11.1422 16.0714C11.1422 15.844 11.2325 15.626 11.3932 15.4653C11.554 15.3045 11.772 15.2142 11.9993 15.2142C12.2266 15.2142 12.4446 15.3045 12.6054 15.4653C12.7661 15.626 12.8564 15.844 12.8564 16.0714ZM7.71359 13.4999C7.94092 13.4999 8.15893 13.4096 8.31968 13.2489C8.48043 13.0881 8.57073 12.8701 8.57073 12.6428C8.57073 12.4155 8.48043 12.1974 8.31968 12.0367C8.15893 11.876 7.94092 11.7856 7.71359 11.7856C7.48626 11.7856 7.26824 11.876 7.1075 12.0367C6.94675 12.1974 6.85645 12.4155 6.85645 12.6428C6.85645 12.8701 6.94675 13.0881 7.1075 13.2489C7.26824 13.4096 7.48626 13.4999 7.71359 13.4999ZM7.71359 16.9285C7.94092 16.9285 8.15893 16.8382 8.31968 16.6775C8.48043 16.5167 8.57073 16.2987 8.57073 16.0714C8.57073 15.844 8.48043 15.626 8.31968 15.4653C8.15893 15.3045 7.94092 15.2142 7.71359 15.2142C7.48626 15.2142 7.26824 15.3045 7.1075 15.4653C6.94675 15.626 6.85645 15.844 6.85645 16.0714C6.85645 16.2987 6.94675 16.5167 7.1075 16.6775C7.26824 16.8382 7.48626 16.9285 7.71359 16.9285Z" fill="#AAB3BF"/>
<path fill-rule="evenodd" clip-rule="evenodd" d="M7.71385 3C7.88434 3 8.04786 3.06773 8.16842 3.18829C8.28898 3.30885 8.3567 3.47236 8.3567 3.64286V4.29686C8.92413 4.28571 9.54899 4.28571 10.2364 4.28571H13.7618C14.4501 4.28571 15.075 4.28571 15.6424 4.29686V3.64286C15.6424 3.47236 15.7101 3.30885 15.8307 3.18829C15.9513 3.06773 16.1148 3 16.2853 3C16.4558 3 16.6193 3.06773 16.7398 3.18829C16.8604 3.30885 16.9281 3.47236 16.9281 3.64286V4.35171C17.151 4.36886 17.3618 4.39029 17.5616 4.41686C18.5661 4.55229 19.3796 4.83686 20.0216 5.478C20.6627 6.12 20.9473 6.93343 21.0827 7.938C21.2138 8.91514 21.2138 10.1623 21.2138 11.7377V13.548C21.2138 15.1234 21.2138 16.3714 21.0827 17.3477C20.9473 18.3523 20.6627 19.1657 20.0216 19.8077C19.3796 20.4489 18.5661 20.7334 17.5616 20.8689C16.5844 21 15.3373 21 13.7618 21H10.2381C8.6627 21 7.4147 21 6.43842 20.8689C5.43385 20.7334 4.62042 20.4489 3.97842 19.8077C3.33728 19.1657 3.0527 18.3523 2.91728 17.3477C2.78613 16.3706 2.78613 15.1234 2.78613 13.548V11.7377C2.78613 10.1623 2.78613 8.91429 2.91728 7.938C3.0527 6.93343 3.33728 6.12 3.97842 5.478C4.62042 4.83686 5.43385 4.55229 6.43842 4.41686C6.63813 4.39029 6.84985 4.36886 7.07185 4.35171V3.64286C7.07185 3.47251 7.13946 3.30913 7.25983 3.18859C7.38021 3.06806 7.5435 3.00023 7.71385 3ZM6.60813 5.69143C5.7467 5.80714 5.24956 6.02486 4.88699 6.38743C4.52442 6.75 4.3067 7.24714 4.19099 8.10943C4.17128 8.25514 4.15499 8.40943 4.14128 8.57143H19.8578C19.8441 8.40857 19.8278 8.25514 19.8081 8.10857C19.6924 7.24714 19.4747 6.75 19.1121 6.38743C18.7496 6.02486 18.2524 5.80714 17.3901 5.69143C16.5098 5.57314 15.3484 5.57143 13.7138 5.57143H10.2853C8.6507 5.57143 7.49013 5.57314 6.60813 5.69143ZM4.07099 11.7857C4.07099 11.0537 4.07099 10.4169 4.08213 9.85714H19.917C19.9281 10.4169 19.9281 11.0537 19.9281 11.7857V13.5C19.9281 15.1346 19.9264 16.296 19.8081 17.1771C19.6924 18.0386 19.4747 18.5357 19.1121 18.8983C18.7496 19.2609 18.2524 19.4786 17.3901 19.5943C16.5098 19.7126 15.3484 19.7143 13.7138 19.7143H10.2853C8.6507 19.7143 7.49013 19.7126 6.60813 19.5943C5.7467 19.4786 5.24956 19.2609 4.88699 18.8983C4.52442 18.5357 4.3067 18.0386 4.19099 17.1763C4.0727 16.296 4.07099 15.1346 4.07099 13.5V11.7857Z" fill="#AAB3BF"/>
</svg>
