<svg width="24" height="24" viewBox="0 0 24 24" fill="none" xmlns="http://www.w3.org/2000/svg">
<path d="M11.5003 20.6667C12.6509 20.6667 13.5837 19.7339 13.5837 18.5833C13.5837 17.4327 12.6509 16.5 11.5003 16.5C10.3497 16.5 9.41699 17.4327 9.41699 18.5833C9.41699 19.7339 10.3497 20.6667 11.5003 20.6667Z" stroke="#515F72" stroke-width="1.4" stroke-miterlimit="10" stroke-linecap="round" stroke-linejoin="round"/>
<path d="M16.1663 14.4168C14.9997 13.1668 13.333 12.3335 11.4997 12.3335C9.66634 12.3335 7.99967 13.1668 6.83301 14.4168" stroke="#515F72" stroke-width="1.4" stroke-miterlimit="10" stroke-linecap="round" stroke-linejoin="round"/>
<path d="M19.0837 11.4165C17.167 9.4165 14.5003 8.1665 11.5003 8.1665C8.50033 8.1665 5.83366 9.4165 3.91699 11.4165" stroke="#515F72" stroke-width="1.4" stroke-miterlimit="10" stroke-linecap="round" stroke-linejoin="round"/>
<path d="M22 8.5C19.3333 5.75 15.6667 4 11.5 4C7.33333 4 3.66667 5.75 1 8.5" stroke="#515F72" stroke-width="1.4" stroke-miterlimit="10" stroke-linecap="round" stroke-linejoin="round"/>
</svg>
